<mxfile host="Electron" agent="Mozilla/5.0 (Macintosh; Intel Mac OS X 10_15_7) AppleWebKit/537.36 (KHTML, like Gecko) draw.io/26.0.4 Chrome/128.0.6613.186 Electron/32.2.5 Safari/537.36" version="26.0.4">
  <diagram name="Page-1" id="iva5XT9GMOiuEKmRyL-4">
    <mxGraphModel dx="1753" dy="851" grid="1" gridSize="10" guides="1" tooltips="1" connect="1" arrows="1" fold="1" page="1" pageScale="1" pageWidth="850" pageHeight="1100" math="0" shadow="0">
      <root>
        <mxCell id="0" />
        <mxCell id="1" parent="0" />
        <mxCell id="t7ZPOOtMgunHoV0goYSm-1" value="Ski Mountain Peaks" style="swimlane;fontStyle=0;childLayout=stackLayout;horizontal=1;startSize=26;horizontalStack=0;resizeParent=1;resizeParentMax=0;resizeLast=0;collapsible=1;marginBottom=0;align=center;fontSize=14;" parent="1" vertex="1">
          <mxGeometry x="20" y="250" width="160" height="50" as="geometry" />
        </mxCell>
        <mxCell id="t7ZPOOtMgunHoV0goYSm-2" value="Peak_Name {PK}&lt;div&gt;&lt;br&gt;&lt;/div&gt;" style="text;strokeColor=none;fillColor=none;spacingLeft=4;spacingRight=4;overflow=hidden;rotatable=0;points=[[0,0.5],[1,0.5]];portConstraint=eastwest;fontSize=12;whiteSpace=wrap;html=1;" parent="t7ZPOOtMgunHoV0goYSm-1" vertex="1">
          <mxGeometry y="26" width="160" height="24" as="geometry" />
        </mxCell>
        <mxCell id="t7ZPOOtMgunHoV0goYSm-5" value="Chairlifts" style="swimlane;fontStyle=0;childLayout=stackLayout;horizontal=1;startSize=26;horizontalStack=0;resizeParent=1;resizeParentMax=0;resizeLast=0;collapsible=1;marginBottom=0;align=center;fontSize=14;" parent="1" vertex="1">
          <mxGeometry x="650" y="740" width="160" height="150" as="geometry" />
        </mxCell>
        <mxCell id="t7ZPOOtMgunHoV0goYSm-6" value="Chairlift_Name {PK}" style="text;strokeColor=none;fillColor=none;spacingLeft=4;spacingRight=4;overflow=hidden;rotatable=0;points=[[0,0.5],[1,0.5]];portConstraint=eastwest;fontSize=12;whiteSpace=wrap;html=1;" parent="t7ZPOOtMgunHoV0goYSm-5" vertex="1">
          <mxGeometry y="26" width="160" height="30" as="geometry" />
        </mxCell>
        <mxCell id="t7ZPOOtMgunHoV0goYSm-7" value="Vertical_rise&lt;div&gt;Travel_time&lt;/div&gt;&lt;div&gt;Number_of_people [1..4]&lt;/div&gt;" style="text;strokeColor=none;fillColor=none;spacingLeft=4;spacingRight=4;overflow=hidden;rotatable=0;points=[[0,0.5],[1,0.5]];portConstraint=eastwest;fontSize=12;whiteSpace=wrap;html=1;" parent="t7ZPOOtMgunHoV0goYSm-5" vertex="1">
          <mxGeometry y="56" width="160" height="64" as="geometry" />
        </mxCell>
        <mxCell id="t7ZPOOtMgunHoV0goYSm-8" value="Closing_time" style="text;strokeColor=none;fillColor=none;spacingLeft=4;spacingRight=4;overflow=hidden;rotatable=0;points=[[0,0.5],[1,0.5]];portConstraint=eastwest;fontSize=12;whiteSpace=wrap;html=1;" parent="t7ZPOOtMgunHoV0goYSm-5" vertex="1">
          <mxGeometry y="120" width="160" height="30" as="geometry" />
        </mxCell>
        <mxCell id="t7ZPOOtMgunHoV0goYSm-9" value="Restaurants" style="swimlane;fontStyle=0;childLayout=stackLayout;horizontal=1;startSize=26;horizontalStack=0;resizeParent=1;resizeParentMax=0;resizeLast=0;collapsible=1;marginBottom=0;align=center;fontSize=14;" parent="1" vertex="1">
          <mxGeometry x="560" y="40" width="160" height="116" as="geometry" />
        </mxCell>
        <mxCell id="t7ZPOOtMgunHoV0goYSm-10" value="Restaurant_Name {PK}" style="text;strokeColor=none;fillColor=none;spacingLeft=4;spacingRight=4;overflow=hidden;rotatable=0;points=[[0,0.5],[1,0.5]];portConstraint=eastwest;fontSize=12;whiteSpace=wrap;html=1;" parent="t7ZPOOtMgunHoV0goYSm-9" vertex="1">
          <mxGeometry y="26" width="160" height="30" as="geometry" />
        </mxCell>
        <mxCell id="t7ZPOOtMgunHoV0goYSm-11" value="Restaurant_Description" style="text;strokeColor=none;fillColor=none;spacingLeft=4;spacingRight=4;overflow=hidden;rotatable=0;points=[[0,0.5],[1,0.5]];portConstraint=eastwest;fontSize=12;whiteSpace=wrap;html=1;" parent="t7ZPOOtMgunHoV0goYSm-9" vertex="1">
          <mxGeometry y="56" width="160" height="30" as="geometry" />
        </mxCell>
        <mxCell id="t7ZPOOtMgunHoV0goYSm-12" value="Cuisine" style="text;strokeColor=none;fillColor=none;spacingLeft=4;spacingRight=4;overflow=hidden;rotatable=0;points=[[0,0.5],[1,0.5]];portConstraint=eastwest;fontSize=12;whiteSpace=wrap;html=1;" parent="t7ZPOOtMgunHoV0goYSm-9" vertex="1">
          <mxGeometry y="86" width="160" height="30" as="geometry" />
        </mxCell>
        <mxCell id="t7ZPOOtMgunHoV0goYSm-13" value="Trails" style="swimlane;fontStyle=0;childLayout=stackLayout;horizontal=1;startSize=26;horizontalStack=0;resizeParent=1;resizeParentMax=0;resizeLast=0;collapsible=1;marginBottom=0;align=center;fontSize=14;" parent="1" vertex="1">
          <mxGeometry x="30" y="770" width="160" height="140" as="geometry" />
        </mxCell>
        <mxCell id="t7ZPOOtMgunHoV0goYSm-14" value="Trail_Name {PK}" style="text;strokeColor=none;fillColor=none;spacingLeft=4;spacingRight=4;overflow=hidden;rotatable=0;points=[[0,0.5],[1,0.5]];portConstraint=eastwest;fontSize=12;whiteSpace=wrap;html=1;" parent="t7ZPOOtMgunHoV0goYSm-13" vertex="1">
          <mxGeometry y="26" width="160" height="30" as="geometry" />
        </mxCell>
        <mxCell id="t7ZPOOtMgunHoV0goYSm-15" value="Trail_Elevation" style="text;strokeColor=none;fillColor=none;spacingLeft=4;spacingRight=4;overflow=hidden;rotatable=0;points=[[0,0.5],[1,0.5]];portConstraint=eastwest;fontSize=12;whiteSpace=wrap;html=1;" parent="t7ZPOOtMgunHoV0goYSm-13" vertex="1">
          <mxGeometry y="56" width="160" height="30" as="geometry" />
        </mxCell>
        <mxCell id="t7ZPOOtMgunHoV0goYSm-16" value="Trail_Length&lt;div&gt;&lt;br&gt;&lt;/div&gt;&lt;div&gt;Time_to_complete&lt;/div&gt;" style="text;strokeColor=none;fillColor=none;spacingLeft=4;spacingRight=4;overflow=hidden;rotatable=0;points=[[0,0.5],[1,0.5]];portConstraint=eastwest;fontSize=12;whiteSpace=wrap;html=1;" parent="t7ZPOOtMgunHoV0goYSm-13" vertex="1">
          <mxGeometry y="86" width="160" height="54" as="geometry" />
        </mxCell>
        <mxCell id="t7ZPOOtMgunHoV0goYSm-17" value="Stores" style="swimlane;fontStyle=0;childLayout=stackLayout;horizontal=1;startSize=26;horizontalStack=0;resizeParent=1;resizeParentMax=0;resizeLast=0;collapsible=1;marginBottom=0;align=center;fontSize=14;" parent="1" vertex="1">
          <mxGeometry x="780" y="190" width="160" height="86" as="geometry" />
        </mxCell>
        <mxCell id="t7ZPOOtMgunHoV0goYSm-18" value="Store_Name {PK}" style="text;strokeColor=none;fillColor=none;spacingLeft=4;spacingRight=4;overflow=hidden;rotatable=0;points=[[0,0.5],[1,0.5]];portConstraint=eastwest;fontSize=12;whiteSpace=wrap;html=1;" parent="t7ZPOOtMgunHoV0goYSm-17" vertex="1">
          <mxGeometry y="26" width="160" height="30" as="geometry" />
        </mxCell>
        <mxCell id="t7ZPOOtMgunHoV0goYSm-19" value="Store_Description" style="text;strokeColor=none;fillColor=none;spacingLeft=4;spacingRight=4;overflow=hidden;rotatable=0;points=[[0,0.5],[1,0.5]];portConstraint=eastwest;fontSize=12;whiteSpace=wrap;html=1;" parent="t7ZPOOtMgunHoV0goYSm-17" vertex="1">
          <mxGeometry y="56" width="160" height="30" as="geometry" />
        </mxCell>
        <mxCell id="t7ZPOOtMgunHoV0goYSm-21" value="" style="triangle;whiteSpace=wrap;html=1;direction=north;" parent="1" vertex="1">
          <mxGeometry x="835" y="276" width="50" height="24" as="geometry" />
        </mxCell>
        <mxCell id="BWHb0j0HOwoP6R558R55-1" value="" style="endArrow=none;html=1;rounded=0;" parent="1" target="BWHb0j0HOwoP6R558R55-25" edge="1">
          <mxGeometry width="50" height="50" relative="1" as="geometry">
            <mxPoint x="70" y="520" as="sourcePoint" />
            <mxPoint x="70" y="350" as="targetPoint" />
          </mxGeometry>
        </mxCell>
        <mxCell id="BWHb0j0HOwoP6R558R55-2" value="" style="endArrow=none;html=1;rounded=0;" parent="1" edge="1">
          <mxGeometry width="50" height="50" relative="1" as="geometry">
            <mxPoint x="70" y="520" as="sourcePoint" />
            <mxPoint x="560" y="520" as="targetPoint" />
          </mxGeometry>
        </mxCell>
        <mxCell id="BWHb0j0HOwoP6R558R55-3" value="" style="endArrow=none;html=1;rounded=0;" parent="1" edge="1">
          <mxGeometry width="50" height="50" relative="1" as="geometry">
            <mxPoint x="10" y="520" as="sourcePoint" />
            <mxPoint x="80" y="520" as="targetPoint" />
          </mxGeometry>
        </mxCell>
        <mxCell id="BWHb0j0HOwoP6R558R55-4" value="" style="endArrow=none;html=1;rounded=0;" parent="1" edge="1">
          <mxGeometry width="50" height="50" relative="1" as="geometry">
            <mxPoint x="10" y="580" as="sourcePoint" />
            <mxPoint x="10" y="520" as="targetPoint" />
          </mxGeometry>
        </mxCell>
        <mxCell id="BWHb0j0HOwoP6R558R55-5" value="Mount Superior" style="swimlane;fontStyle=0;childLayout=stackLayout;horizontal=1;startSize=30;horizontalStack=0;resizeParent=1;resizeParentMax=0;resizeLast=0;collapsible=1;marginBottom=0;whiteSpace=wrap;html=1;" parent="1" vertex="1">
          <mxGeometry y="580" width="140" height="120" as="geometry" />
        </mxCell>
        <mxCell id="BWHb0j0HOwoP6R558R55-6" value="Elevation_MS" style="text;strokeColor=none;fillColor=none;align=left;verticalAlign=middle;spacingLeft=4;spacingRight=4;overflow=hidden;points=[[0,0.5],[1,0.5]];portConstraint=eastwest;rotatable=0;whiteSpace=wrap;html=1;" parent="BWHb0j0HOwoP6R558R55-5" vertex="1">
          <mxGeometry y="30" width="140" height="30" as="geometry" />
        </mxCell>
        <mxCell id="BWHb0j0HOwoP6R558R55-7" value="Latitude_MS" style="text;strokeColor=none;fillColor=none;align=left;verticalAlign=middle;spacingLeft=4;spacingRight=4;overflow=hidden;points=[[0,0.5],[1,0.5]];portConstraint=eastwest;rotatable=0;whiteSpace=wrap;html=1;" parent="BWHb0j0HOwoP6R558R55-5" vertex="1">
          <mxGeometry y="60" width="140" height="30" as="geometry" />
        </mxCell>
        <mxCell id="BWHb0j0HOwoP6R558R55-8" value="Longitude_MS" style="text;strokeColor=none;fillColor=none;align=left;verticalAlign=middle;spacingLeft=4;spacingRight=4;overflow=hidden;points=[[0,0.5],[1,0.5]];portConstraint=eastwest;rotatable=0;whiteSpace=wrap;html=1;" parent="BWHb0j0HOwoP6R558R55-5" vertex="1">
          <mxGeometry y="90" width="140" height="30" as="geometry" />
        </mxCell>
        <mxCell id="BWHb0j0HOwoP6R558R55-24" style="edgeStyle=orthogonalEdgeStyle;rounded=0;orthogonalLoop=1;jettySize=auto;html=1;endArrow=none;endFill=0;" parent="1" source="BWHb0j0HOwoP6R558R55-9" edge="1">
          <mxGeometry relative="1" as="geometry">
            <mxPoint x="560" y="520" as="targetPoint" />
          </mxGeometry>
        </mxCell>
        <mxCell id="BWHb0j0HOwoP6R558R55-9" value="Hidden Peak" style="swimlane;fontStyle=0;childLayout=stackLayout;horizontal=1;startSize=30;horizontalStack=0;resizeParent=1;resizeParentMax=0;resizeLast=0;collapsible=1;marginBottom=0;whiteSpace=wrap;html=1;" parent="1" vertex="1">
          <mxGeometry x="490" y="580" width="140" height="120" as="geometry" />
        </mxCell>
        <mxCell id="BWHb0j0HOwoP6R558R55-10" value="Elevation_HP" style="text;strokeColor=none;fillColor=none;align=left;verticalAlign=middle;spacingLeft=4;spacingRight=4;overflow=hidden;points=[[0,0.5],[1,0.5]];portConstraint=eastwest;rotatable=0;whiteSpace=wrap;html=1;" parent="BWHb0j0HOwoP6R558R55-9" vertex="1">
          <mxGeometry y="30" width="140" height="30" as="geometry" />
        </mxCell>
        <mxCell id="BWHb0j0HOwoP6R558R55-11" value="Latitude_HP" style="text;strokeColor=none;fillColor=none;align=left;verticalAlign=middle;spacingLeft=4;spacingRight=4;overflow=hidden;points=[[0,0.5],[1,0.5]];portConstraint=eastwest;rotatable=0;whiteSpace=wrap;html=1;" parent="BWHb0j0HOwoP6R558R55-9" vertex="1">
          <mxGeometry y="60" width="140" height="30" as="geometry" />
        </mxCell>
        <mxCell id="BWHb0j0HOwoP6R558R55-12" value="Longitude_HP" style="text;strokeColor=none;fillColor=none;align=left;verticalAlign=middle;spacingLeft=4;spacingRight=4;overflow=hidden;points=[[0,0.5],[1,0.5]];portConstraint=eastwest;rotatable=0;whiteSpace=wrap;html=1;" parent="BWHb0j0HOwoP6R558R55-9" vertex="1">
          <mxGeometry y="90" width="140" height="30" as="geometry" />
        </mxCell>
        <mxCell id="BWHb0j0HOwoP6R558R55-21" style="edgeStyle=orthogonalEdgeStyle;rounded=0;orthogonalLoop=1;jettySize=auto;html=1;endArrow=none;endFill=0;" parent="1" source="BWHb0j0HOwoP6R558R55-13" edge="1">
          <mxGeometry relative="1" as="geometry">
            <mxPoint x="240" y="520" as="targetPoint" />
          </mxGeometry>
        </mxCell>
        <mxCell id="BWHb0j0HOwoP6R558R55-13" value="Mount Baldy" style="swimlane;fontStyle=0;childLayout=stackLayout;horizontal=1;startSize=30;horizontalStack=0;resizeParent=1;resizeParentMax=0;resizeLast=0;collapsible=1;marginBottom=0;whiteSpace=wrap;html=1;" parent="1" vertex="1">
          <mxGeometry x="170" y="580" width="140" height="120" as="geometry" />
        </mxCell>
        <mxCell id="BWHb0j0HOwoP6R558R55-14" value="Elevation_MB" style="text;strokeColor=none;fillColor=none;align=left;verticalAlign=middle;spacingLeft=4;spacingRight=4;overflow=hidden;points=[[0,0.5],[1,0.5]];portConstraint=eastwest;rotatable=0;whiteSpace=wrap;html=1;" parent="BWHb0j0HOwoP6R558R55-13" vertex="1">
          <mxGeometry y="30" width="140" height="30" as="geometry" />
        </mxCell>
        <mxCell id="BWHb0j0HOwoP6R558R55-15" value="Latitude_MB" style="text;strokeColor=none;fillColor=none;align=left;verticalAlign=middle;spacingLeft=4;spacingRight=4;overflow=hidden;points=[[0,0.5],[1,0.5]];portConstraint=eastwest;rotatable=0;whiteSpace=wrap;html=1;" parent="BWHb0j0HOwoP6R558R55-13" vertex="1">
          <mxGeometry y="60" width="140" height="30" as="geometry" />
        </mxCell>
        <mxCell id="BWHb0j0HOwoP6R558R55-16" value="Longitude_MB" style="text;strokeColor=none;fillColor=none;align=left;verticalAlign=middle;spacingLeft=4;spacingRight=4;overflow=hidden;points=[[0,0.5],[1,0.5]];portConstraint=eastwest;rotatable=0;whiteSpace=wrap;html=1;" parent="BWHb0j0HOwoP6R558R55-13" vertex="1">
          <mxGeometry y="90" width="140" height="30" as="geometry" />
        </mxCell>
        <mxCell id="BWHb0j0HOwoP6R558R55-22" style="edgeStyle=orthogonalEdgeStyle;rounded=0;orthogonalLoop=1;jettySize=auto;html=1;endArrow=none;endFill=0;" parent="1" source="BWHb0j0HOwoP6R558R55-17" edge="1">
          <mxGeometry relative="1" as="geometry">
            <mxPoint x="400" y="520" as="targetPoint" />
          </mxGeometry>
        </mxCell>
        <mxCell id="BWHb0j0HOwoP6R558R55-17" value="Twin Peaks" style="swimlane;fontStyle=0;childLayout=stackLayout;horizontal=1;startSize=30;horizontalStack=0;resizeParent=1;resizeParentMax=0;resizeLast=0;collapsible=1;marginBottom=0;whiteSpace=wrap;html=1;" parent="1" vertex="1">
          <mxGeometry x="330" y="580" width="140" height="120" as="geometry" />
        </mxCell>
        <mxCell id="BWHb0j0HOwoP6R558R55-18" value="Elevation_TP" style="text;strokeColor=none;fillColor=none;align=left;verticalAlign=middle;spacingLeft=4;spacingRight=4;overflow=hidden;points=[[0,0.5],[1,0.5]];portConstraint=eastwest;rotatable=0;whiteSpace=wrap;html=1;" parent="BWHb0j0HOwoP6R558R55-17" vertex="1">
          <mxGeometry y="30" width="140" height="30" as="geometry" />
        </mxCell>
        <mxCell id="BWHb0j0HOwoP6R558R55-19" value="Latitude_TP" style="text;strokeColor=none;fillColor=none;align=left;verticalAlign=middle;spacingLeft=4;spacingRight=4;overflow=hidden;points=[[0,0.5],[1,0.5]];portConstraint=eastwest;rotatable=0;whiteSpace=wrap;html=1;" parent="BWHb0j0HOwoP6R558R55-17" vertex="1">
          <mxGeometry y="60" width="140" height="30" as="geometry" />
        </mxCell>
        <mxCell id="BWHb0j0HOwoP6R558R55-20" value="Longitude_TP" style="text;strokeColor=none;fillColor=none;align=left;verticalAlign=middle;spacingLeft=4;spacingRight=4;overflow=hidden;points=[[0,0.5],[1,0.5]];portConstraint=eastwest;rotatable=0;whiteSpace=wrap;html=1;" parent="BWHb0j0HOwoP6R558R55-17" vertex="1">
          <mxGeometry y="90" width="140" height="30" as="geometry" />
        </mxCell>
        <mxCell id="BWHb0j0HOwoP6R558R55-25" value="" style="triangle;whiteSpace=wrap;html=1;direction=north;" parent="1" vertex="1">
          <mxGeometry x="50" y="300" width="40" height="30" as="geometry" />
        </mxCell>
        <mxCell id="BWHb0j0HOwoP6R558R55-26" value="{Mandatory, OR}" style="text;html=1;align=center;verticalAlign=middle;resizable=0;points=[];autosize=1;strokeColor=none;fillColor=none;" parent="1" vertex="1">
          <mxGeometry x="65" y="490" width="110" height="30" as="geometry" />
        </mxCell>
        <mxCell id="BWHb0j0HOwoP6R558R55-50" value="" style="endArrow=none;html=1;rounded=0;" parent="1" edge="1">
          <mxGeometry width="50" height="50" relative="1" as="geometry">
            <mxPoint x="860" y="400" as="sourcePoint" />
            <mxPoint x="860" y="300" as="targetPoint" />
          </mxGeometry>
        </mxCell>
        <mxCell id="BWHb0j0HOwoP6R558R55-51" value="" style="endArrow=none;html=1;rounded=0;" parent="1" edge="1">
          <mxGeometry width="50" height="50" relative="1" as="geometry">
            <mxPoint x="760" y="400" as="sourcePoint" />
            <mxPoint x="940" y="400" as="targetPoint" />
          </mxGeometry>
        </mxCell>
        <mxCell id="BWHb0j0HOwoP6R558R55-52" value="" style="endArrow=none;html=1;rounded=0;" parent="1" edge="1">
          <mxGeometry width="50" height="50" relative="1" as="geometry">
            <mxPoint x="760" y="460" as="sourcePoint" />
            <mxPoint x="760" y="400" as="targetPoint" />
          </mxGeometry>
        </mxCell>
        <mxCell id="BWHb0j0HOwoP6R558R55-53" value="Ski Rental Shop" style="swimlane;fontStyle=0;childLayout=stackLayout;horizontal=1;startSize=30;horizontalStack=0;resizeParent=1;resizeParentMax=0;resizeLast=0;collapsible=1;marginBottom=0;whiteSpace=wrap;html=1;" parent="1" vertex="1">
          <mxGeometry x="690" y="460" width="140" height="60" as="geometry" />
        </mxCell>
        <mxCell id="BWHb0j0HOwoP6R558R55-58" value="" style="endArrow=none;html=1;rounded=0;" parent="1" edge="1">
          <mxGeometry width="50" height="50" relative="1" as="geometry">
            <mxPoint x="940" y="460" as="sourcePoint" />
            <mxPoint x="940" y="400" as="targetPoint" />
          </mxGeometry>
        </mxCell>
        <mxCell id="BWHb0j0HOwoP6R558R55-60" value="Retail Shop" style="swimlane;fontStyle=0;childLayout=stackLayout;horizontal=1;startSize=30;horizontalStack=0;resizeParent=1;resizeParentMax=0;resizeLast=0;collapsible=1;marginBottom=0;whiteSpace=wrap;html=1;" parent="1" vertex="1">
          <mxGeometry x="860" y="460" width="140" height="60" as="geometry">
            <mxRectangle x="860" y="460" width="100" height="30" as="alternateBounds" />
          </mxGeometry>
        </mxCell>
        <mxCell id="BWHb0j0HOwoP6R558R55-65" value="{Mandatory , OR}" style="text;html=1;align=center;verticalAlign=middle;resizable=0;points=[];autosize=1;strokeColor=none;fillColor=none;" parent="1" vertex="1">
          <mxGeometry x="845" y="380" width="120" height="30" as="geometry" />
        </mxCell>
        <mxCell id="BWHb0j0HOwoP6R558R55-66" style="edgeStyle=orthogonalEdgeStyle;rounded=0;orthogonalLoop=1;jettySize=auto;html=1;entryX=0.619;entryY=1;entryDx=0;entryDy=0;entryPerimeter=0;endArrow=none;endFill=0;" parent="1" source="t7ZPOOtMgunHoV0goYSm-2" target="t7ZPOOtMgunHoV0goYSm-12" edge="1">
          <mxGeometry relative="1" as="geometry" />
        </mxCell>
        <mxCell id="BWHb0j0HOwoP6R558R55-67" value="Found on" style="edgeLabel;html=1;align=center;verticalAlign=middle;resizable=0;points=[];" parent="BWHb0j0HOwoP6R558R55-66" vertex="1" connectable="0">
          <mxGeometry x="0.1031" relative="1" as="geometry">
            <mxPoint as="offset" />
          </mxGeometry>
        </mxCell>
        <mxCell id="BWHb0j0HOwoP6R558R55-68" value="" style="triangle;whiteSpace=wrap;html=1;direction=west;fillColor=#000000;" parent="1" vertex="1">
          <mxGeometry x="490" y="246" width="50" height="30" as="geometry" />
        </mxCell>
        <mxCell id="BWHb0j0HOwoP6R558R55-69" value="1..1" style="text;html=1;align=center;verticalAlign=middle;resizable=0;points=[];autosize=1;strokeColor=none;fillColor=none;" parent="1" vertex="1">
          <mxGeometry x="170" y="258" width="40" height="30" as="geometry" />
        </mxCell>
        <mxCell id="BWHb0j0HOwoP6R558R55-70" value="0..*" style="text;html=1;align=center;verticalAlign=middle;resizable=0;points=[];autosize=1;strokeColor=none;fillColor=none;" parent="1" vertex="1">
          <mxGeometry x="630" y="156" width="40" height="30" as="geometry" />
        </mxCell>
        <mxCell id="BWHb0j0HOwoP6R558R55-75" style="edgeStyle=orthogonalEdgeStyle;rounded=0;orthogonalLoop=1;jettySize=auto;html=1;entryX=0;entryY=0.5;entryDx=0;entryDy=0;endArrow=none;endFill=0;" parent="1" source="t7ZPOOtMgunHoV0goYSm-2" target="t7ZPOOtMgunHoV0goYSm-15" edge="1">
          <mxGeometry relative="1" as="geometry">
            <Array as="points">
              <mxPoint x="-110" y="288" />
              <mxPoint x="-110" y="841" />
            </Array>
          </mxGeometry>
        </mxCell>
        <mxCell id="BWHb0j0HOwoP6R558R55-76" value="has" style="edgeLabel;html=1;align=center;verticalAlign=middle;resizable=0;points=[];" parent="BWHb0j0HOwoP6R558R55-75" vertex="1" connectable="0">
          <mxGeometry x="-0.0644" y="1" relative="1" as="geometry">
            <mxPoint as="offset" />
          </mxGeometry>
        </mxCell>
        <mxCell id="BWHb0j0HOwoP6R558R55-78" value="" style="triangle;whiteSpace=wrap;html=1;direction=south;fillColor=#000000;" parent="1" vertex="1">
          <mxGeometry x="-90" y="535" width="30" height="30" as="geometry" />
        </mxCell>
        <mxCell id="BWHb0j0HOwoP6R558R55-79" value="0..*" style="text;html=1;align=center;verticalAlign=middle;resizable=0;points=[];autosize=1;strokeColor=none;fillColor=none;" parent="1" vertex="1">
          <mxGeometry x="-10" y="808" width="40" height="30" as="geometry" />
        </mxCell>
        <mxCell id="BWHb0j0HOwoP6R558R55-80" value="1..*" style="text;html=1;align=center;verticalAlign=middle;resizable=0;points=[];autosize=1;strokeColor=none;fillColor=none;" parent="1" vertex="1">
          <mxGeometry x="-20" y="288" width="40" height="30" as="geometry" />
        </mxCell>
        <mxCell id="BWHb0j0HOwoP6R558R55-81" style="edgeStyle=orthogonalEdgeStyle;rounded=0;orthogonalLoop=1;jettySize=auto;html=1;entryX=0.556;entryY=0.01;entryDx=0;entryDy=0;entryPerimeter=0;endArrow=none;endFill=0;" parent="1" source="t7ZPOOtMgunHoV0goYSm-13" target="t7ZPOOtMgunHoV0goYSm-5" edge="1">
          <mxGeometry relative="1" as="geometry">
            <Array as="points">
              <mxPoint x="110" y="730" />
              <mxPoint x="739" y="730" />
            </Array>
          </mxGeometry>
        </mxCell>
        <mxCell id="BWHb0j0HOwoP6R558R55-82" value="services" style="edgeLabel;html=1;align=center;verticalAlign=middle;resizable=0;points=[];" parent="BWHb0j0HOwoP6R558R55-81" vertex="1" connectable="0">
          <mxGeometry x="-0.1761" y="2" relative="1" as="geometry">
            <mxPoint as="offset" />
          </mxGeometry>
        </mxCell>
        <mxCell id="BWHb0j0HOwoP6R558R55-83" value="" style="triangle;whiteSpace=wrap;html=1;direction=west;fillColor=#000000;" parent="1" vertex="1">
          <mxGeometry x="330" y="710" width="20" height="10" as="geometry" />
        </mxCell>
        <mxCell id="BWHb0j0HOwoP6R558R55-85" value="1..*" style="text;html=1;align=center;verticalAlign=middle;resizable=0;points=[];autosize=1;strokeColor=none;fillColor=none;" parent="1" vertex="1">
          <mxGeometry x="100" y="745.5" width="40" height="30" as="geometry" />
        </mxCell>
        <mxCell id="BWHb0j0HOwoP6R558R55-86" value="0..*" style="text;html=1;align=center;verticalAlign=middle;resizable=0;points=[];autosize=1;strokeColor=none;fillColor=none;" parent="1" vertex="1">
          <mxGeometry x="740" y="715.5" width="40" height="30" as="geometry" />
        </mxCell>
        <mxCell id="BWHb0j0HOwoP6R558R55-88" style="edgeStyle=orthogonalEdgeStyle;rounded=0;orthogonalLoop=1;jettySize=auto;html=1;entryX=0.544;entryY=1.046;entryDx=0;entryDy=0;entryPerimeter=0;endArrow=none;endFill=0;" parent="1" source="t7ZPOOtMgunHoV0goYSm-17" target="t7ZPOOtMgunHoV0goYSm-2" edge="1">
          <mxGeometry relative="1" as="geometry">
            <Array as="points">
              <mxPoint x="710" y="233" />
              <mxPoint x="710" y="410" />
              <mxPoint x="107" y="410" />
            </Array>
          </mxGeometry>
        </mxCell>
        <mxCell id="BWHb0j0HOwoP6R558R55-89" value="present on" style="edgeLabel;html=1;align=center;verticalAlign=middle;resizable=0;points=[];" parent="BWHb0j0HOwoP6R558R55-88" vertex="1" connectable="0">
          <mxGeometry x="0.1161" y="-2" relative="1" as="geometry">
            <mxPoint as="offset" />
          </mxGeometry>
        </mxCell>
        <mxCell id="BWHb0j0HOwoP6R558R55-90" value="1..1" style="text;html=1;align=center;verticalAlign=middle;resizable=0;points=[];autosize=1;strokeColor=none;fillColor=none;" parent="1" vertex="1">
          <mxGeometry x="110" y="298" width="40" height="30" as="geometry" />
        </mxCell>
        <mxCell id="BWHb0j0HOwoP6R558R55-91" value="0..*" style="text;html=1;align=center;verticalAlign=middle;resizable=0;points=[];autosize=1;strokeColor=none;fillColor=none;" parent="1" vertex="1">
          <mxGeometry x="740" y="228" width="40" height="30" as="geometry" />
        </mxCell>
        <mxCell id="BWHb0j0HOwoP6R558R55-92" value="" style="triangle;whiteSpace=wrap;html=1;direction=west;fillColor=#000000;" parent="1" vertex="1">
          <mxGeometry x="400" y="370" width="40" height="30" as="geometry" />
        </mxCell>
        <mxCell id="HvmH91weaVABCMgQ3Ppv-1" value="Level Of Difficulty" style="swimlane;fontStyle=0;childLayout=stackLayout;horizontal=1;startSize=30;horizontalStack=0;resizeParent=1;resizeParentMax=0;resizeLast=0;collapsible=1;marginBottom=0;whiteSpace=wrap;html=1;" vertex="1" parent="1">
          <mxGeometry x="340" y="920" width="190" height="150" as="geometry" />
        </mxCell>
        <mxCell id="HvmH91weaVABCMgQ3Ppv-2" value="Easiest" style="text;strokeColor=none;fillColor=none;align=left;verticalAlign=middle;spacingLeft=4;spacingRight=4;overflow=hidden;points=[[0,0.5],[1,0.5]];portConstraint=eastwest;rotatable=0;whiteSpace=wrap;html=1;" vertex="1" parent="HvmH91weaVABCMgQ3Ppv-1">
          <mxGeometry y="30" width="190" height="30" as="geometry" />
        </mxCell>
        <mxCell id="HvmH91weaVABCMgQ3Ppv-3" value="Intermediate" style="text;strokeColor=none;fillColor=none;align=left;verticalAlign=middle;spacingLeft=4;spacingRight=4;overflow=hidden;points=[[0,0.5],[1,0.5]];portConstraint=eastwest;rotatable=0;whiteSpace=wrap;html=1;" vertex="1" parent="HvmH91weaVABCMgQ3Ppv-1">
          <mxGeometry y="60" width="190" height="30" as="geometry" />
        </mxCell>
        <mxCell id="HvmH91weaVABCMgQ3Ppv-4" value="Advanced&lt;div&gt;&lt;br&gt;&lt;/div&gt;&lt;div&gt;Expert&lt;/div&gt;" style="text;strokeColor=none;fillColor=none;align=left;verticalAlign=middle;spacingLeft=4;spacingRight=4;overflow=hidden;points=[[0,0.5],[1,0.5]];portConstraint=eastwest;rotatable=0;whiteSpace=wrap;html=1;" vertex="1" parent="HvmH91weaVABCMgQ3Ppv-1">
          <mxGeometry y="90" width="190" height="60" as="geometry" />
        </mxCell>
        <mxCell id="HvmH91weaVABCMgQ3Ppv-5" style="edgeStyle=orthogonalEdgeStyle;rounded=0;orthogonalLoop=1;jettySize=auto;html=1;entryX=0.25;entryY=0;entryDx=0;entryDy=0;endArrow=none;endFill=0;" edge="1" parent="1" source="t7ZPOOtMgunHoV0goYSm-15" target="HvmH91weaVABCMgQ3Ppv-1">
          <mxGeometry relative="1" as="geometry" />
        </mxCell>
        <mxCell id="HvmH91weaVABCMgQ3Ppv-6" value="assigned to" style="edgeLabel;html=1;align=center;verticalAlign=middle;resizable=0;points=[];" vertex="1" connectable="0" parent="HvmH91weaVABCMgQ3Ppv-5">
          <mxGeometry x="0.085" y="-1" relative="1" as="geometry">
            <mxPoint y="1" as="offset" />
          </mxGeometry>
        </mxCell>
        <mxCell id="HvmH91weaVABCMgQ3Ppv-8" value="" style="triangle;whiteSpace=wrap;html=1;direction=east;fillColor=#000000;" vertex="1" parent="1">
          <mxGeometry x="320" y="828" width="20" height="10" as="geometry" />
        </mxCell>
        <mxCell id="HvmH91weaVABCMgQ3Ppv-9" value="1..1" style="text;html=1;align=center;verticalAlign=middle;resizable=0;points=[];autosize=1;strokeColor=none;fillColor=none;" vertex="1" parent="1">
          <mxGeometry x="340" y="898" width="40" height="30" as="geometry" />
        </mxCell>
        <mxCell id="HvmH91weaVABCMgQ3Ppv-10" value="0..*" style="text;html=1;align=center;verticalAlign=middle;resizable=0;points=[];autosize=1;strokeColor=none;fillColor=none;" vertex="1" parent="1">
          <mxGeometry x="180" y="838" width="40" height="30" as="geometry" />
        </mxCell>
        <mxCell id="HvmH91weaVABCMgQ3Ppv-12" value="&lt;b&gt;&lt;font style=&quot;font-size: 36px;&quot;&gt;1.&lt;/font&gt;&lt;/b&gt;" style="text;html=1;align=center;verticalAlign=middle;resizable=0;points=[];autosize=1;strokeColor=none;fillColor=none;" vertex="1" parent="1">
          <mxGeometry x="35" y="33" width="50" height="60" as="geometry" />
        </mxCell>
      </root>
    </mxGraphModel>
  </diagram>
</mxfile>
